# This file uses centimeters as units for non-parametric coordinates.

mtllib pencil.mtl
g default
v 0.045046 0.045046 -1.419310
v 0.000000 0.063704 -1.419310
v -0.045046 0.045046 -1.419310
v -0.063704 0.000000 -1.419310
v -0.045046 -0.045046 -1.419310
v 0.000000 -0.063704 -1.419310
v 0.045046 -0.045046 -1.419310
v 0.063704 0.000000 -1.419310
v 0.065790 0.065790 1.419310
v 0.000000 0.093041 1.419310
v -0.065790 0.065790 1.419310
v -0.093041 0.000000 1.419310
v -0.065790 -0.065790 1.419310
v 0.000000 -0.093041 1.419310
v 0.065790 -0.065790 1.419310
v 0.093041 0.000000 1.419310
v 0.000000 0.000000 -1.419310
v 0.065790 0.065790 -1.271389
v 0.000000 0.093041 -1.271389
v -0.065790 0.065790 -1.271389
v -0.093041 0.000000 -1.271389
v -0.065790 -0.065790 -1.271389
v 0.000000 -0.093041 -1.271389
v 0.065790 -0.065790 -1.271389
v 0.093041 0.000000 -1.271389
v 0.065790 0.065790 -1.214808
v 0.093041 0.000000 -1.214808
v 0.065790 -0.065790 -1.214808
v 0.000000 -0.093041 -1.214808
v -0.065790 -0.065790 -1.214808
v -0.093041 0.000000 -1.214808
v -0.065790 0.065790 -1.214808
v 0.000000 0.093041 -1.214808
v 0.068077 0.068077 -1.272373
v -0.000000 0.096275 -1.272373
v -0.000000 0.096275 -1.213825
v 0.068077 0.068077 -1.213825
v -0.068077 0.068077 -1.272373
v -0.068077 0.068077 -1.213825
v -0.096275 0.000000 -1.272373
v -0.096275 0.000000 -1.213825
v -0.068077 -0.068077 -1.272373
v -0.068077 -0.068077 -1.213825
v -0.000000 -0.096275 -1.272373
v -0.000000 -0.096275 -1.213825
v 0.068077 -0.068077 -1.272373
v 0.068077 -0.068077 -1.213825
v 0.096275 0.000000 -1.272373
v 0.096275 0.000000 -1.213825
v 0.066050 0.066050 -1.351660
v 0.000000 0.093408 -1.351660
v -0.066050 0.066050 -1.351660
v -0.093408 0.000000 -1.351660
v -0.066050 -0.066050 -1.351660
v 0.000000 -0.093408 -1.351660
v 0.066050 -0.066050 -1.351660
v 0.093408 0.000000 -1.351660
v 0.013978 0.013978 1.719932
v 0.000000 0.019767 1.719932
v 0.000000 0.000000 1.719932
v -0.013977 0.013978 1.719932
v -0.019767 0.000000 1.719932
v -0.013978 -0.013978 1.719932
v -0.000000 -0.019767 1.719932
v 0.013977 -0.013978 1.719933
v 0.019767 0.000000 1.719932
vt 0.610485 0.045765
vt 0.500000 0.000000
vt 0.389515 0.045765
vt 0.343750 0.156250
vt 0.389515 0.266735
vt 0.500000 0.312500
vt 0.610485 0.266735
vt 0.656250 0.156250
vt 0.375000 0.312500
vt 0.406250 0.312500
vt 0.437500 0.312500
vt 0.468750 0.312500
vt 0.500000 0.312500
vt 0.531250 0.312500
vt 0.562500 0.312500
vt 0.593750 0.312500
vt 0.625000 0.312500
vt 0.375000 0.688440
vt 0.406250 0.688440
vt 0.437500 0.688440
vt 0.468750 0.688440
vt 0.500000 0.688440
vt 0.531250 0.688440
vt 0.562500 0.688440
vt 0.593750 0.688440
vt 0.625000 0.688440
vt 0.610485 0.733265
vt 0.500000 0.687500
vt 0.389515 0.733265
vt 0.343750 0.843750
vt 0.389515 0.954235
vt 0.500000 1.000000
vt 0.610485 0.954235
vt 0.656250 0.843750
vt 0.500000 0.150000
vt 0.500000 0.837500
vt 0.625000 0.332090
vt 0.375000 0.332090
vt 0.406250 0.332090
vt 0.437500 0.332090
vt 0.468750 0.332090
vt 0.500000 0.332090
vt 0.531250 0.332090
vt 0.562500 0.332090
vt 0.593750 0.332090
vt 0.625000 0.339584
vt 0.375000 0.339584
vt 0.593750 0.339584
vt 0.562500 0.339584
vt 0.531250 0.339584
vt 0.500000 0.339584
vt 0.468750 0.339584
vt 0.437500 0.339584
vt 0.406250 0.339584
vt 0.375000 0.332090
vt 0.406250 0.332090
vt 0.406250 0.339584
vt 0.375000 0.339584
vt 0.437500 0.332090
vt 0.437500 0.339584
vt 0.468750 0.332090
vt 0.468750 0.339584
vt 0.500000 0.332090
vt 0.500000 0.339584
vt 0.531250 0.332090
vt 0.531250 0.339584
vt 0.562500 0.332090
vt 0.562500 0.339584
vt 0.593750 0.332090
vt 0.593750 0.339584
vt 0.625000 0.332090
vt 0.625000 0.339584
vt 0.625000 0.321459
vt 0.375000 0.321459
vt 0.406250 0.321459
vt 0.437500 0.321459
vt 0.468750 0.321459
vt 0.500000 0.321459
vt 0.531250 0.321459
vt 0.562500 0.321459
vt 0.593750 0.321459
vt 0.610485 0.954235
vt 0.500000 1.000000
vt 0.389515 0.954235
vt 0.343750 0.843750
vt 0.389515 0.733265
vt 0.500000 0.687500
vt 0.610485 0.733265
vt 0.656250 0.843750
vn 0.382683 0.923880 0.000000
vn 0.382683 0.923880 0.000000
vn 0.382683 0.923880 0.000000
vn 0.382683 0.923880 0.000000
vn -0.382683 0.923880 0.000000
vn -0.382683 0.923880 0.000000
vn -0.382683 0.923880 0.000000
vn -0.382683 0.923880 0.000000
vn -0.923880 0.382683 0.000000
vn -0.923880 0.382683 0.000000
vn -0.923880 0.382683 0.000000
vn -0.923880 0.382683 0.000000
vn -0.923880 -0.382683 0.000000
vn -0.923880 -0.382683 0.000000
vn -0.923880 -0.382683 0.000000
vn -0.923880 -0.382683 0.000000
vn -0.382683 -0.923880 0.000000
vn -0.382683 -0.923880 0.000000
vn -0.382683 -0.923880 0.000000
vn -0.382683 -0.923880 0.000000
vn 0.382683 -0.923880 0.000000
vn 0.382683 -0.923880 0.000000
vn 0.382683 -0.923880 0.000000
vn 0.382683 -0.923880 0.000000
vn 0.923880 -0.382683 0.000000
vn 0.923880 -0.382683 0.000000
vn 0.923880 -0.382683 0.000000
vn 0.923880 -0.382683 0.000000
vn 0.923880 0.382683 0.000000
vn 0.923880 0.382683 0.000000
vn 0.923880 0.382683 0.000000
vn 0.923880 0.382683 0.000000
vn -0.000003 0.000000 -1.000000
vn -0.000003 0.000000 -1.000000
vn -0.000001 0.000000 -1.000000
vn 0.000000 0.000000 -1.000000
vn 0.000000 0.000000 -1.000000
vn 0.000000 0.000001 -1.000000
vn 0.000000 0.000002 -1.000000
vn 0.000000 0.000001 -1.000000
vn 0.000000 0.000000 -1.000000
vn 0.000000 0.000003 1.000000
vn 0.000000 0.000006 1.000000
vn -0.000003 0.000001 1.000000
vn 0.000000 0.000003 1.000000
vn 0.000000 0.000000 1.000000
vn 0.000000 -0.000003 1.000000
vn -0.000013 -0.000006 1.000000
vn -0.000013 0.000001 1.000000
vn 0.000000 0.000004 1.000000
vn 0.378117 0.912855 -0.154026
vn 0.378117 0.912855 -0.154026
vn 0.382680 0.923871 0.004231
vn 0.382680 0.923871 0.004231
vn -0.378117 0.912855 -0.154026
vn -0.378117 0.912855 -0.154026
vn -0.382680 0.923871 0.004231
vn -0.382680 0.923871 0.004231
vn -0.912855 0.378117 -0.154025
vn -0.912855 0.378117 -0.154026
vn -0.923871 0.382680 0.004231
vn -0.923871 0.382680 0.004231
vn -0.912855 -0.378117 -0.154026
vn -0.912855 -0.378117 -0.154026
vn -0.923871 -0.382680 0.004232
vn -0.923871 -0.382680 0.004232
vn -0.378116 -0.912855 -0.154025
vn -0.378116 -0.912855 -0.154025
vn -0.382680 -0.923871 0.004232
vn -0.382680 -0.923871 0.004232
vn 0.378116 -0.912855 -0.154026
vn 0.378116 -0.912855 -0.154025
vn 0.382680 -0.923871 0.004232
vn 0.382680 -0.923871 0.004232
vn 0.912855 -0.378117 -0.154026
vn 0.912855 -0.378117 -0.154026
vn 0.923871 -0.382680 0.004232
vn 0.923871 -0.382680 0.004232
vn 0.912855 0.378117 -0.154026
vn 0.912855 0.378117 -0.154025
vn 0.923871 0.382680 0.004231
vn 0.923871 0.382680 0.004231
vn 0.923880 0.382684 0.000000
vn 0.923880 0.382684 0.000000
vn 0.923792 0.382647 0.013780
vn 0.923792 0.382647 0.013780
vn 0.923880 -0.382683 -0.000000
vn 0.923880 -0.382683 -0.000000
vn 0.923792 -0.382647 0.013780
vn 0.923792 -0.382647 0.013780
vn 0.382683 -0.923880 -0.000000
vn 0.382683 -0.923880 -0.000000
vn 0.382647 -0.923792 0.013780
vn 0.382647 -0.923792 0.013780
vn -0.382683 -0.923880 -0.000000
vn -0.382683 -0.923880 -0.000000
vn -0.382647 -0.923792 0.013780
vn -0.382647 -0.923792 0.013780
vn -0.923880 -0.382683 -0.000000
vn -0.923880 -0.382683 -0.000000
vn -0.923792 -0.382647 0.013780
vn -0.923792 -0.382647 0.013780
vn -0.923880 0.382684 0.000000
vn -0.923880 0.382684 0.000000
vn -0.923792 0.382647 0.013780
vn -0.923792 0.382647 0.013780
vn -0.382684 0.923880 0.000000
vn -0.382684 0.923879 0.000000
vn -0.382647 0.923792 0.013780
vn -0.382647 0.923792 0.013780
vn 0.382684 0.923879 0.000000
vn 0.382684 0.923880 0.000000
vn 0.382647 0.923792 0.013780
vn 0.382647 0.923792 0.013780
vn -0.119623 -0.288816 -0.949882
vn -0.119623 -0.288816 -0.949882
vn -0.119623 -0.288816 -0.949882
vn -0.119623 -0.288816 -0.949882
vn -0.119621 -0.288800 0.949887
vn -0.119621 -0.288800 0.949887
vn -0.119621 -0.288800 0.949887
vn -0.119621 -0.288800 0.949887
vn 0.119630 -0.288816 -0.949881
vn 0.119630 -0.288816 -0.949881
vn 0.119630 -0.288816 -0.949881
vn 0.119630 -0.288816 -0.949881
vn 0.119628 -0.288799 0.949886
vn 0.119628 -0.288799 0.949886
vn 0.119628 -0.288799 0.949886
vn 0.119628 -0.288799 0.949886
vn 0.288812 -0.119632 -0.949882
vn 0.288812 -0.119632 -0.949882
vn 0.288812 -0.119632 -0.949882
vn 0.288812 -0.119632 -0.949882
vn 0.288808 -0.119625 0.949884
vn 0.288808 -0.119625 0.949884
vn 0.288808 -0.119625 0.949884
vn 0.288808 -0.119625 0.949884
vn 0.288837 0.119638 -0.949873
vn 0.288837 0.119638 -0.949873
vn 0.288837 0.119638 -0.949874
vn 0.288837 0.119638 -0.949874
vn 0.288825 0.119631 0.949878
vn 0.288825 0.119631 0.949878
vn 0.288825 0.119631 0.949878
vn 0.288825 0.119631 0.949878
vn 0.119623 0.288815 -0.949882
vn 0.119623 0.288815 -0.949882
vn 0.119623 0.288815 -0.949882
vn 0.119623 0.288815 -0.949882
vn 0.119619 0.288800 0.949887
vn 0.119619 0.288800 0.949887
vn 0.119619 0.288800 0.949887
vn 0.119619 0.288800 0.949887
vn -0.119617 0.288800 -0.949888
vn -0.119617 0.288800 -0.949888
vn -0.119617 0.288800 -0.949888
vn -0.119617 0.288800 -0.949888
vn -0.119612 0.288784 0.949893
vn -0.119612 0.288784 0.949893
vn -0.119612 0.288784 0.949893
vn -0.119612 0.288784 0.949893
vn -0.288812 0.119632 -0.949882
vn -0.288812 0.119632 -0.949882
vn -0.288812 0.119632 -0.949882
vn -0.288812 0.119632 -0.949882
vn -0.288808 0.119625 0.949884
vn -0.288808 0.119625 0.949884
vn -0.288808 0.119625 0.949884
vn -0.288808 0.119625 0.949884
vn -0.288808 -0.119632 -0.949883
vn -0.288808 -0.119632 -0.949883
vn -0.288808 -0.119632 -0.949883
vn -0.288808 -0.119632 -0.949883
vn -0.288794 -0.119626 0.949888
vn -0.288794 -0.119626 0.949888
vn -0.288794 -0.119626 0.949888
vn -0.288794 -0.119626 0.949888
vn 0.354616 0.856119 -0.375910
vn 0.354616 0.856119 -0.375910
vn -0.354617 0.856119 -0.375910
vn -0.354617 0.856119 -0.375910
vn -0.856119 0.354616 -0.375910
vn -0.856119 0.354616 -0.375910
vn -0.856119 -0.354616 -0.375910
vn -0.856119 -0.354616 -0.375910
vn -0.354615 -0.856119 -0.375910
vn -0.354615 -0.856119 -0.375910
vn 0.354615 -0.856119 -0.375910
vn 0.354615 -0.856119 -0.375910
vn 0.856119 -0.354616 -0.375910
vn 0.856119 -0.354616 -0.375910
vn 0.856119 0.354616 -0.375910
vn 0.856119 0.354616 -0.375910
vn 0.373334 0.901311 0.219684
vn 0.373334 0.901311 0.219684
vn -0.373334 0.901311 0.219684
vn -0.373334 0.901311 0.219684
vn -0.901310 0.373335 0.219684
vn -0.901310 0.373335 0.219684
vn -0.901311 -0.373334 0.219684
vn -0.901311 -0.373334 0.219684
vn -0.373334 -0.901311 0.219684
vn -0.373334 -0.901311 0.219684
vn 0.373334 -0.901311 0.219684
vn 0.373334 -0.901311 0.219684
vn 0.901310 -0.373334 0.219684
vn 0.901310 -0.373334 0.219684
vn 0.901311 0.373334 0.219684
vn 0.901311 0.373334 0.219684
s off
g pencil_geo pencil_grp
usemtl initialShadingGroup
f 34/55/1 35/56/2 36/57/3 37/58/4
f 35/56/5 38/59/6 39/60/7 36/57/8
f 38/59/9 40/61/10 41/62/11 39/60/12
f 40/61/13 42/63/14 43/64/15 41/62/16
f 42/63/17 44/65/18 45/66/19 43/64/20
f 44/65/21 46/67/22 47/68/23 45/66/24
f 46/67/25 48/69/26 49/70/27 47/68/28
f 48/69/29 34/71/30 37/72/31 49/70/32
s 1
f 2/2/33 1/1/34 17/35/35
f 3/3/36 2/2/33 17/35/35
f 4/4/37 3/3/36 17/35/35
f 5/5/38 4/4/37 17/35/35
f 6/6/39 5/5/38 17/35/35
f 7/7/40 6/6/39 17/35/35
f 8/8/41 7/7/40 17/35/35
f 1/1/34 8/8/41 17/35/35
s 2
f 58/82/42 59/83/43 60/36/44
f 59/83/43 61/84/45 60/36/44
f 61/84/45 62/85/46 60/36/44
f 62/85/46 63/86/47 60/36/44
f 63/86/47 64/87/48 60/36/44
f 64/87/48 65/88/49 60/36/44
f 65/88/49 66/89/50 60/36/44
f 66/89/50 58/82/42 60/36/44
s 3
f 50/74/51 51/75/52 19/39/53 18/38/54
s 4
f 51/75/55 52/76/56 20/40/57 19/39/58
s 5
f 52/76/59 53/77/60 21/41/61 20/40/62
s 6
f 53/77/63 54/78/64 22/42/65 21/41/66
s 7
f 54/78/67 55/79/68 23/43/69 22/42/70
s 8
f 55/79/71 56/80/72 24/44/73 23/43/74
s 9
f 56/80/75 57/81/76 25/45/77 24/44/78
s 10
f 57/81/79 50/73/80 18/37/81 25/45/82
s 11
f 27/48/83 26/46/84 9/26/85 16/25/86
s 12
f 28/49/87 27/48/88 16/25/89 15/24/90
s 13
f 29/50/91 28/49/92 15/24/93 14/23/94
s 14
f 30/51/95 29/50/96 14/23/97 13/22/98
s 15
f 31/52/99 30/51/100 13/22/101 12/21/102
s 16
f 32/53/103 31/52/104 12/21/105 11/20/106
s 17
f 33/54/107 32/53/108 11/20/109 10/19/110
s 18
f 26/47/111 33/54/112 10/19/113 9/18/114
s off
f 18/38/115 19/39/116 35/56/117 34/55/118
f 33/54/119 26/47/120 37/58/121 36/57/122
f 19/39/123 20/40/124 38/59/125 35/56/126
f 32/53/127 33/54/128 36/57/129 39/60/130
f 20/40/131 21/41/132 40/61/133 38/59/134
f 31/52/135 32/53/136 39/60/137 41/62/138
f 21/41/139 22/42/140 42/63/141 40/61/142
f 30/51/143 31/52/144 41/62/145 43/64/146
f 22/42/147 23/43/148 44/65/149 42/63/150
f 29/50/151 30/51/152 43/64/153 45/66/154
f 23/43/155 24/44/156 46/67/157 44/65/158
f 28/49/159 29/50/160 45/66/161 47/68/162
f 24/44/163 25/45/164 48/69/165 46/67/166
f 27/48/167 28/49/168 47/68/169 49/70/170
f 25/45/171 18/37/172 34/71/173 48/69/174
f 26/46/175 27/48/176 49/70/177 37/72/178
s 3
f 1/9/179 2/10/180 51/75/52 50/74/51
s 4
f 2/10/181 3/11/182 52/76/56 51/75/55
s 5
f 3/11/183 4/12/184 53/77/60 52/76/59
s 6
f 4/12/185 5/13/186 54/78/64 53/77/63
s 7
f 5/13/187 6/14/188 55/79/68 54/78/67
s 8
f 6/14/189 7/15/190 56/80/72 55/79/71
s 9
f 7/15/191 8/16/192 57/81/76 56/80/75
s 10
f 8/16/193 1/17/194 50/73/80 57/81/79
s 18
f 9/33/114 10/32/113 59/83/195 58/82/196
s 17
f 10/32/110 11/31/109 61/84/197 59/83/198
s 16
f 11/31/106 12/30/105 62/85/199 61/84/200
s 15
f 12/30/102 13/29/101 63/86/201 62/85/202
s 14
f 13/29/98 14/28/97 64/87/203 63/86/204
s 13
f 14/28/94 15/27/93 65/88/205 64/87/206
s 12
f 15/27/90 16/34/89 66/89/207 65/88/208
s 11
f 16/34/86 9/33/85 58/82/209 66/89/210
